PathFileType	4	(X/Y/Z)	C:\Users\Basilio\Documents\Thesis Gigler\squatting_fais\c3dfiles\039\SLS_pre_front3\markers_experimental.trc
DataRate	CameraRate	NumFrames	NumMarkers	Units	OrigDataRate	OrigDataStartFrame	OrigNumFrames
200.000000	200.000000	4	63	mm	200.000000	541	2166
Frame#	Time	FHD			LBHD			RBHD			C7			T10			CLAV			LSHO			LUUPA			LMUPA			LDUPA			LLEP			LMEP			LRAD			LUL			LRFIN			RSHO			RUPA1			RMUPA			RDUPA			RLEP			RMEP			RRAD			RUL			RUFIN			LASI			RASI			USACR			LSACR			RSACR			LTHI1			LTHI2			LTHI3			LTHI4			LLFC			LMFC			LTIB1			LTIB2			LTIB3			LTIB4			LLMAL			LMMAL			LHEE			LMT1			LMT2			LMT5			RTHI			RTHI2			RTHI3			RTHI4			RLFC			RMFC			RTIB1			RTIB2			RTIB3			RTIB4			RLMAL			RMMAL			RHEE			RMT1			RMT2			RMT5			*61			*62			
		X1	Y1	Z1	X2	Y2	Z2	X3	Y3	Z3	X4	Y4	Z4	X5	Y5	Z5	X6	Y6	Z6	X7	Y7	Z7	X8	Y8	Z8	X9	Y9	Z9	X10	Y10	Z10	X11	Y11	Z11	X12	Y12	Z12	X13	Y13	Z13	X14	Y14	Z14	X15	Y15	Z15	X16	Y16	Z16	X17	Y17	Z17	X18	Y18	Z18	X19	Y19	Z19	X20	Y20	Z20	X21	Y21	Z21	X22	Y22	Z22	X23	Y23	Z23	X24	Y24	Z24	X25	Y25	Z25	X26	Y26	Z26	X27	Y27	Z27	X28	Y28	Z28	X29	Y29	Z29	X30	Y30	Z30	X31	Y31	Z31	X32	Y32	Z32	X33	Y33	Z33	X34	Y34	Z34	X35	Y35	Z35	X36	Y36	Z36	X37	Y37	Z37	X38	Y38	Z38	X39	Y39	Z39	X40	Y40	Z40	X41	Y41	Z41	X42	Y42	Z42	X43	Y43	Z43	X44	Y44	Z44	X45	Y45	Z45	X46	Y46	Z46	X47	Y47	Z47	X48	Y48	Z48	X49	Y49	Z49	X50	Y50	Z50	X51	Y51	Z51	X52	Y52	Z52	X53	Y53	Z53	X54	Y54	Z54	X55	Y55	Z55	X56	Y56	Z56	X57	Y57	Z57	X58	Y58	Z58	X59	Y59	Z59	X60	Y60	Z60	X61	Y61	Z61	X62	Y62	Z62	X63	Y63	Z63	

542	2.705	-303.0867004394532	1789.56884765625	-680.1514282226564	-464.0763244628907	1761.237915039063	-796.246276855469	-433.0299072265626	1763.8046875	-658.2627563476564	-498.7429199218751	1589.589721679688	-748.3049316406251	-485.2925720214845	1279.5556640625	-773.1685180664065	nan	nan	nan	-419.8255310058595	1612.715576171875	-904.236022949219	-248.4126892089844	1587.764892578125	-1012.01611328125	-227.4481506347657	1621.916015625	-982.0371093750002	-179.7690582275391	1602.849853515625	-1012.026672363281	-114.5947494506836	1616.6669921875	-1007.411804199219	-104.1854095458985	1547.241455078125	-973.126159667969	162.3409881591797	1670.38330078125	-927.0789184570315	159.347152709961	1674.881591796875	-1003.057922363281	241.1012573242188	1710.787109375	-924.977722167969	-389.2626953125001	1608.043701171875	-592.2907714843751	-214.8605194091797	1562.29541015625	-504.0197753906251	-193.0155029296876	1597.314453125	-534.2387084960939	-146.7280426025391	1564.771362304688	-511.492401123047	-86.59753417968751	1583.957641601563	-526.4364624023439	-78.16171264648439	1514.695922851563	-563.6495971679689	190.9924774169922	1647.028442382813	-624.7375488281251	196.916488647461	1638.9052734375	-549.2921752929689	277.7162170410157	1684.072021484375	-623.4939575195314	-301.7399597167969	1111.131469726563	-894.5711059570315	-298.1260375976563	1089.953002929688	-668.9191284179689	-485.8462219238282	1149.942016601563	-776.3807373046877	-488.0000305175782	1119.140258789063	-805.8950805664065	-487.346893310547	1116.064208984375	-746.6441650390626	-331.0855407714844	833.993103027344	-991.7274169921877	-288.6628112792969	760.9208984375001	-997.443054199219	-243.2270812988282	768.6812133789065	-986.6834716796877	-310.0990295410157	704.2144165039064	-995.181823730469	-301.2383117675782	586.2146606445314	-1002.900146484375	-268.0809631347657	548.8062133789064	-893.663757324219	-259.9565734863282	433.4151000976564	-1000.577697753906	-333.4690551757813	405.6174621582032	-1041.586181640625	-293.4207458496094	393.5498352050782	-1029.241455078125	-299.8681640625001	310.3406982421876	-999.0838012695315	-384.6392211914064	155.7893981933594	-1042.942993164063	-361.2395019531251	145.9433898925782	-960.245544433594	-456.6218872070314	118.2730484008789	-1001.264953613281	-231.1838073730469	58.0454559326172	-999.550231933594	-239.9983062744141	58.49068832397462	-1041.80029296875	-293.0855407714844	47.31695175170899	-1088.355224609375	-323.5416564941407	814.5081176757815	-619.9067382812501	-277.5213317871094	765.6151123046876	-621.9615478515626	-246.8438415527344	772.9026489257815	-629.4962158203126	-296.1779785156251	683.1059570312501	-638.3903808593751	-317.1264648437501	543.9378662109376	-669.8143310546876	-285.7079467773438	543.5346069335939	-785.272644042969	-284.1932678222657	332.7526550292969	-700.3626708984376	-373.4025573730469	271.8390502929688	-694.9826049804689	-328.5110473632813	260.4518737792969	-694.4071044921876	-313.6892089843751	213.5731353759766	-731.9107055664064	-385.4559631347657	123.488639831543	-712.2656250000001	-355.7962646484376	141.4616851806641	-796.7314453125002	-453.9676208496095	104.8852462768555	-767.9406738281251	-230.8390350341797	55.03002166748048	-776.2442626953127	-234.3500671386719	57.53871536254884	-730.2536010742189	-290.6355285644532	41.02181625366212	-679.3139038085939	nan	nan	nan	nan	nan	nan	
543	2.71	-303.0256958007813	1789.507080078125	-679.6028442382814	-463.9619140625001	1761.244873046875	-795.3504028320315	-433.0063781738282	1763.713256835938	-657.5372314453126	-498.780975341797	1589.543823242188	-747.4708251953126	-485.4805908203126	1279.670654296875	-772.4168701171877	nan	nan	nan	-419.7285766601564	1612.757202148438	-903.4232177734377	-248.3496856689454	1587.7763671875	-1011.245971679688	-227.3161010742188	1621.91845703125	-981.3899536132815	-179.7467651367188	1602.941528320313	-1011.359741210938	-114.482421875	1616.67431640625	-1006.801025390625	-104.1905975341797	1547.089477539063	-972.3526611328127	162.3260955810547	1670.3134765625	-926.2215576171877	159.3487701416016	1674.863037109375	-1002.524780273438	241.1027221679688	1710.66943359375	-924.3144531250002	-389.2023010253907	1608.06982421875	-591.5604248046876	-214.7529602050782	1562.312377929688	-503.4277648925782	-193.0254364013672	1597.164672851563	-533.5363159179689	-146.6478881835938	1564.688598632813	-510.897430419922	-86.47303009033205	1583.695190429688	-525.9194946289064	-78.1675491333008	1514.428955078125	-562.8380126953126	191.0484771728516	1646.729736328125	-624.0684814453126	196.9914550781251	1638.706298828125	-548.7243652343751	277.8530883789063	1683.624633789063	-622.8471069335939	-302.2428588867188	1111.088256835938	-894.0330200195315	-298.2552795410157	1089.912475585938	-668.5761718750001	-486.1727600097657	1150.022338867188	-775.7393188476565	-488.3040466308595	1119.225341796875	-805.2663574218752	-487.4332885742189	1116.030517578125	-745.9898071289064	-330.5402832031251	833.8071899414065	-991.2347412109377	-288.0122985839844	761.2770996093751	-996.8035888671877	-242.5382995605469	769.115173339844	-986.147399902344	-309.1275939941407	704.4761962890626	-994.8272094726565	-300.1999206542969	586.5742797851564	-1002.527038574219	-267.8269042968751	548.7940673828126	-893.6555786132815	-259.0963439941407	433.661834716797	-1000.289611816406	-332.3623352050782	406.397918701172	-1041.024658203125	-292.4668884277344	393.8511657714845	-1028.861938476563	-299.1720275878907	311.1395568847657	-998.9104003906252	-384.1657714843751	156.2626495361328	-1042.842895507813	-360.5912170410157	146.3359375	-960.1451416015627	-456.2222900390626	119.0329208374024	-1001.041870117188	-231.1342773437501	58.47046279907228	-999.306579589844	-240.053939819336	58.7203826904297	-1041.751831054688	-293.0240173339844	47.36745071411134	-1088.280395507813	-323.8342895507813	814.1682739257815	-619.3141479492189	-277.8702392578126	765.1578979492189	-621.6825561523439	-247.0826568603516	772.6123046875002	-629.4208984375001	-296.3312072753907	683.0389404296876	-638.1087036132814	-317.2054138183594	543.7384033203126	-669.5664672851564	-285.8314208984376	543.5512084960939	-785.0375976562502	-284.2796936035157	332.6864929199219	-700.2263793945314	-373.8049316406251	271.2760620117188	-694.9331665039064	-328.6938171386719	260.0274658203126	-694.7929687500001	-313.7104797363282	213.5674133300782	-731.8333740234376	-385.4563903808595	123.4580230712891	-712.2259521484376	-355.7777099609376	141.4612274169922	-796.6159667968752	-454.0390014648439	104.8029098510742	-767.8763427734376	-230.8058013916016	54.92079162597658	-776.1948242187502	-234.3757324218751	57.53696060180665	-730.2838134765626	-290.6284484863282	40.98624420166016	-679.3320312500001	nan	nan	nan	nan	nan	nan	
544	2.715	-302.8340454101563	1789.503173828125	-679.0323486328126	-463.4397583007814	1761.252563476563	-795.013854980469	-432.9217834472657	1763.86767578125	-656.8301391601564	-498.8663940429689	1589.721923828125	-746.6829223632814	-485.7337951660157	1279.688720703125	-771.756286621094	nan	nan	nan	-420.2593688964845	1612.938232421875	-902.8432617187502	-248.3158111572266	1587.863403320313	-1010.657897949219	-227.305648803711	1621.968505859375	-980.6733398437502	-179.7979278564453	1602.880493164063	-1010.723876953125	-114.6024169921875	1616.737182617188	-1006.060302734375	-104.2306671142578	1546.998168945313	-971.717224121094	162.3682861328125	1670.298950195313	-925.5974121093752	159.3599548339844	1674.925537109375	-1001.883666992188	241.0242614746094	1710.63916015625	-923.5789184570315	-389.0426025390626	1607.974609375	-590.8574218750001	-214.606185913086	1562.322387695313	-503.0044860839845	-192.9624481201172	1597.014770507813	-532.7464599609376	-146.6139678955078	1564.579345703125	-510.145965576172	-86.47966766357423	1583.484375	-525.1454467773439	-78.14369201660158	1514.386962890625	-562.1390991210939	191.4563751220703	1646.709106445313	-623.3826293945314	197.2797546386719	1638.599975585938	-547.9734497070314	277.9014587402344	1683.193725585938	-622.1188964843751	-303.0815734863282	1111.034790039063	-893.4216918945315	-298.4944152832032	1089.876586914063	-668.1268310546876	-486.470184326172	1150.062255859375	-775.155944824219	-488.7566528320314	1119.372924804688	-804.5317993164065	-487.7409973144532	1116.155395507813	-745.3013916015626	-330.0362854003907	833.9888305664065	-990.9443359375002	-287.2845153808594	761.5055541992189	-996.236755371094	-241.5214080810547	769.3601684570315	-985.526550292969	-308.2153320312501	704.6773681640626	-994.3371582031252	-298.9034118652344	586.8392333984376	-1001.984985351563	-266.2451782226563	549.3716430664064	-892.9506835937502	-258.4713745117188	433.9939575195314	-1000.107116699219	-331.6711425781251	406.3333129882814	-1040.770263671875	-290.8579101562501	395.0383605957032	-1028.178344726563	-298.1563110351563	312.1563415527344	-998.5413818359377	-383.7228088378907	156.8918914794922	-1042.591064453125	-359.9955139160157	146.8738708496094	-959.8860473632815	-455.8824768066407	120.0677108764649	-1000.727844238281	-230.9362335205079	58.5376319885254	-999.1895141601565	-239.7669219970704	58.90016174316408	-1041.638061523438	-292.8808288574219	47.66210556030274	-1088.142822265625	-323.9699401855469	814.087829589844	-618.9429931640626	-277.8610839843751	765.5931396484376	-621.0640258789064	-247.2884368896485	772.5515747070315	-629.1400146484376	-296.5077209472657	682.9367065429689	-637.8565673828126	-317.1862792968751	543.6709594726564	-669.2577514648439	-285.9933166503907	543.5629882812501	-784.836364746094	-284.3043518066407	332.6929016113282	-700.0678710937501	-373.4464416503907	271.8291931152344	-694.5953369140626	-328.6573486328126	260.1005249023438	-694.5622558593751	-313.7286071777344	213.496810913086	-731.7666015625001	-385.4631347656251	123.4132080078125	-712.1776123046876	-355.7944946289063	141.4481048583985	-796.5886230468752	-454.019500732422	104.8121414184571	-767.8724365234376	-230.8755187988282	55.08626174926759	-776.2119750976565	-234.3885040283204	57.52536010742189	-730.2931518554689	-290.6350097656251	40.9787712097168	-679.3092651367189	nan	nan	nan	nan	nan	nan	
545	2.72	-302.6925659179688	1789.476684570313	-678.2707519531251	-463.5020751953126	1761.16259765625	-794.1147460937502	-432.7214355468751	1763.853515625	-656.1237182617189	-498.8960876464845	1589.8466796875	-746.0192260742189	-486.0520629882814	1279.677001953125	-771.0696411132815	nan	nan	nan	-419.7131652832032	1612.82373046875	-901.8781738281252	-248.3409423828126	1587.931396484375	-1010.013305664063	-227.5439147949219	1621.854370117188	-979.6778564453127	-179.8326873779297	1602.949340820313	-1010.054565429688	-114.5828094482422	1616.673583984375	-1005.430236816406	-104.2003250122071	1547.112915039063	-971.1040649414065	162.3868865966797	1670.173950195313	-924.965026855469	159.3244323730469	1674.917846679688	-1001.152648925781	240.9904327392579	1710.620239257813	-922.891296386719	-388.3654174804689	1607.714599609375	-590.5038452148439	-214.2796783447266	1562.368896484375	-501.8910217285157	-192.9148254394532	1596.935791015625	-531.9420776367189	-146.6530456542969	1564.426635742188	-509.321014404297	-86.42066955566408	1583.415771484375	-524.3045654296876	-78.09848785400392	1514.271484375	-561.3140258789064	191.5973663330078	1646.341186523438	-622.6125488281251	197.4545440673829	1638.401123046875	-547.3866577148439	278.0203247070313	1682.886596679688	-621.3671264648439	-303.5190429687501	1111.134643554688	-893.0325317382815	-298.8893432617188	1089.755615234375	-667.6276245117189	-486.8662414550782	1150.151489257813	-774.4934692382815	-489.2336425781251	1119.426147460938	-803.9339599609377	-487.979949951172	1116.13525390625	-744.6448364257814	-329.5141296386719	834.1561279296877	-990.507263183594	-286.4960632324219	762.0014038085939	-995.638610839844	-241.1690063476563	769.9978027343752	-984.896423339844	-307.3847961425782	704.8267822265626	-993.9633789062502	-297.6945190429688	587.2319335937501	-1001.539001464844	-265.4973754882813	549.3765869140626	-892.699157714844	-257.3957214355469	434.2958984375001	-999.6956787109377	-330.4801025390626	406.8907775878907	-1040.57568359375	-290.2924804687501	395.1524047851564	-1027.92822265625	-297.5816955566407	312.5608215332032	-998.2442016601565	-383.3246459960938	157.6422729492188	-1042.354248046875	-359.3970336914063	147.3492126464844	-959.546325683594	-455.8086853027345	120.8301086425782	-1000.738525390625	-230.766342163086	58.69812774658205	-999.1617431640627	-239.5315551757813	59.10103988647462	-1041.501342773438	-292.7185058593751	48.0852508544922	-1087.939331054688	-324.1735229492188	814.0916137695315	-618.5736083984376	-278.4145507812501	765.0791015625001	-620.8255004882814	-247.4674835205079	772.5618286132815	-628.7562255859376	-296.6256408691407	682.7777099609376	-637.4572143554689	-317.2938842773438	543.6112670898439	-669.0839233398439	-286.1713256835938	543.5795898437501	-784.5516357421877	-284.3583068847657	332.7691650390626	-700.0139770507814	-373.6105957031251	271.5316162109376	-694.5386352539064	-328.7102966308594	259.9228210449219	-694.6342773437501	-313.7618713378907	213.4338531494141	-731.6875610351564	-385.4478149414064	123.3917922973633	-712.1104125976564	-355.8311462402344	141.469223022461	-796.5071411132815	-454.046356201172	104.8132934570313	-767.8077392578126	-230.8269500732422	54.92731094360353	-776.1643676757815	-234.4039459228516	57.49645996093751	-730.2850952148439	-290.6471252441407	40.94324111938477	-679.3222045898439	nan	nan	nan	nan	nan	nan	
